<?xml version="1.0" standalone="no"?>
<!DOCTYPE svg PUBLIC "-//W3C//DTD SVG 20010904//EN"
 "http://www.w3.org/TR/2001/REC-SVG-20010904/DTD/svg10.dtd">
<svg version="1.0" xmlns="http://www.w3.org/2000/svg"
 width="1536.000000pt" height="1024.000000pt" viewBox="0 0 1536.000000 1024.000000"
 preserveAspectRatio="xMidYMid meet">

<g transform="translate(0.000000,1024.000000) scale(0.100000,-0.100000)"
fill="#2c6e6d" stroke="none">
<path d="M9465 7835 c-208 -34 -376 -87 -815 -255 -518 -198 -724 -253 -1055
-281 -149 -12 -281 -6 -480 22 -189 27 -313 55 -625 145 -479 136 -759 199
-1045 235 -155 19 -507 17 -645 -5 -376 -57 -651 -185 -871 -405 -236 -237
-369 -541 -436 -996 -25 -170 -24 -607 1 -790 72 -524 231 -906 490 -1182 190
-202 483 -345 826 -402 338 -56 627 -55 1245 5 581 56 620 58 985 58 508 0
648 -17 1580 -188 195 -35 430 -76 522 -90 864 -134 1520 -104 2011 93 447
179 791 564 1026 1148 103 256 148 476 138 678 -19 358 -167 600 -537 872 -69
51 -188 139 -265 196 -223 164 -371 293 -635 552 -268 264 -390 362 -546 442
-220 113 -372 153 -614 158 -114 3 -193 0 -255 -10z m450 -160 c111 -23 215
-59 318 -110 165 -83 258 -156 507 -400 353 -346 425 -407 765 -655 397 -289
487 -375 576 -552 58 -116 80 -203 86 -349 7 -161 -11 -274 -78 -474 -114
-346 -319 -687 -537 -896 -329 -315 -780 -459 -1447 -461 -446 -2 -765 37
-1620 196 -333 62 -679 116 -915 143 -197 22 -834 25 -1035 5 -71 -7 -213 -22
-315 -32 -444 -46 -577 -54 -865 -54 -367 -1 -527 20 -775 100 -195 63 -335
148 -481 294 -315 314 -494 900 -476 1565 14 540 155 936 425 1197 184 177
411 287 712 344 113 21 513 30 653 15 265 -30 506 -83 982 -216 606 -169 815
-205 1130 -191 375 16 649 85 1210 306 393 155 559 206 765 236 116 16 305 12
415 -11z"/>
<path d="M6111 6506 c-82 -27 -121 -83 -121 -174 0 -101 58 -163 160 -170 79
-6 141 17 178 66 24 31 27 44 27 107 0 62 -3 76 -27 107 -48 63 -138 89 -217
64z"/>
<path d="M4650 5645 l0 -785 145 0 144 0 3 133 3 132 32 -65 c46 -93 93 -144
171 -182 62 -31 75 -33 182 -36 98 -3 125 -1 180 18 170 57 276 180 326 380
25 98 25 303 0 405 -46 193 -173 335 -340 380 -94 26 -241 17 -318 -17 -75
-35 -138 -94 -174 -165 l-29 -58 -3 323 -2 322 -160 0 -160 0 0 -785z m731 88
c103 -58 157 -176 146 -323 -9 -139 -60 -230 -152 -275 -145 -71 -323 -12
-386 127 -21 47 -24 68 -24 178 0 112 2 130 24 170 40 77 97 127 171 151 14 5
57 7 96 5 58 -2 82 -9 125 -33z"/>
<path d="M7030 6039 c-250 -27 -420 -158 -502 -389 -28 -78 -36 -278 -14 -380
23 -110 68 -194 145 -270 115 -114 246 -160 459 -160 207 0 360 56 470 174
103 111 142 225 142 421 0 236 -82 410 -240 510 -69 43 -191 84 -287 95 -49 5
-90 9 -93 9 -3 -1 -39 -5 -80 -10z m227 -299 c93 -41 147 -121 162 -238 21
-173 -34 -308 -153 -370 -44 -23 -63 -26 -142 -27 -81 0 -96 3 -149 30 -107
55 -155 148 -155 300 0 172 66 276 203 321 58 19 172 11 234 -16z"/>
<path d="M8500 6040 c-68 -12 -114 -34 -164 -80 -62 -57 -80 -90 -127 -222
l-39 -113 6 193 5 192 -145 0 -146 0 0 -575 0 -575 155 0 155 0 1 138 c4 475
10 528 60 627 48 92 105 129 191 123 65 -5 99 -25 135 -78 44 -64 47 -89 50
-457 l4 -353 159 0 158 0 5 313 c4 333 9 366 60 465 14 27 43 60 66 77 37 26
52 30 106 30 56 0 68 -4 102 -31 51 -42 81 -104 93 -194 5 -41 10 -207 10
-367 l0 -293 155 0 155 0 0 380 c0 305 -3 396 -16 458 -44 220 -160 329 -360
340 -213 11 -332 -86 -389 -319 l-19 -74 -8 45 c-22 122 -32 153 -65 202 -44
66 -79 95 -151 123 -67 27 -140 36 -202 25z"/>
<path d="M10367 6039 c-234 -31 -405 -178 -468 -402 -27 -96 -32 -286 -10
-377 19 -79 73 -188 120 -241 51 -59 148 -121 231 -150 99 -34 306 -39 421
-10 163 41 264 115 320 236 17 35 29 70 27 76 -4 11 -226 89 -254 89 -6 0 -15
-12 -18 -26 -12 -46 -88 -111 -152 -130 -126 -36 -274 4 -334 91 -30 43 -64
150 -54 166 3 5 192 9 421 9 l416 0 -7 108 c-9 134 -27 215 -67 294 -99 195
-332 301 -592 267z m189 -264 c78 -23 140 -94 159 -182 l7 -33 -262 0 -262 0
7 33 c31 146 191 230 351 182z"/>
<path d="M6020 5435 l0 -575 155 0 155 0 0 575 0 575 -155 0 -155 0 0 -575z"/>
<path d="M9577 3140 c-18 -29 -18 -30 1 -30 18 0 40 19 56 48 5 8 0 12 -16 12
-16 0 -30 -10 -41 -30z"/>
<path d="M5077 3066 c-72 -26 -107 -80 -107 -166 0 -101 52 -160 147 -168 45
-4 60 -1 83 17 36 26 36 26 43 1 3 -11 12 -20 21 -20 13 0 16 14 16 90 l0 90
-70 0 c-63 0 -70 -2 -70 -19 0 -17 8 -20 47 -23 26 -2 48 -8 51 -16 2 -7 -13
-29 -32 -48 -34 -34 -40 -36 -83 -31 -69 8 -103 48 -103 123 0 69 19 107 66
129 31 15 43 15 76 6 21 -7 44 -21 51 -31 13 -23 57 -27 57 -6 0 22 -50 65
-89 76 -46 13 -58 12 -104 -4z"/>
<path d="M6297 3066 c-74 -27 -107 -78 -107 -167 0 -99 52 -159 144 -167 66
-5 119 16 146 60 l20 33 -21 5 c-15 4 -32 -5 -56 -29 -31 -31 -37 -33 -79 -28
-67 7 -96 39 -102 113 -6 71 15 116 65 139 44 21 89 12 124 -26 25 -27 59 -32
59 -9 0 21 -55 70 -88 80 -47 13 -58 12 -105 -4z"/>
<path d="M8747 3066 c-52 -19 -73 -40 -93 -92 -20 -52 -14 -128 13 -175 51
-88 211 -92 263 -7 19 32 19 33 0 40 -14 5 -28 -2 -54 -28 -38 -38 -77 -44
-126 -19 -44 23 -63 67 -58 132 4 44 11 60 37 86 26 27 39 32 77 32 39 0 50
-5 74 -32 20 -22 34 -30 49 -26 19 5 19 7 6 34 -28 54 -119 80 -188 55z"/>
<path d="M4675 3023 c-10 -27 -37 -98 -61 -160 -24 -61 -44 -116 -44 -123 0
-6 10 -10 22 -8 15 2 26 16 37 46 l15 42 77 0 77 0 14 -42 c11 -32 21 -44 38
-46 20 -3 22 -1 16 25 -4 15 -33 92 -64 171 -52 133 -58 142 -83 142 -22 0
-29 -7 -44 -47z m105 -160 c0 -2 -27 -3 -59 -3 l-60 0 26 72 c13 40 27 77 30
82 5 7 63 -134 63 -151z"/>
<path d="M5422 2903 l3 -168 108 -3 c102 -3 107 -2 107 18 0 19 -6 20 -85 20
l-85 0 0 60 0 60 75 0 c68 0 75 2 75 20 0 18 -7 20 -75 20 l-75 0 0 50 0 50
85 0 c78 0 85 2 85 20 0 19 -7 20 -110 20 l-110 0 2 -167z"/>
<path d="M5782 2903 c3 -160 4 -168 23 -168 19 0 20 7 20 128 0 70 4 126 8
124 4 -1 45 -58 90 -127 69 -105 86 -125 107 -125 l25 0 2 168 2 167 -24 0
-25 0 0 -132 -1 -133 -86 133 c-77 119 -89 132 -115 132 l-28 0 2 -167z"/>
<path d="M6630 2900 l0 -171 107 3 c93 3 108 5 111 21 3 15 -6 17 -82 17 l-86
0 0 60 0 60 76 0 c66 0 75 2 72 18 -3 14 -16 18 -76 20 l-72 3 0 49 0 49 82 3
c70 3 83 6 86 21 3 15 -7 17 -107 17 l-111 0 0 -170z"/>
<path d="M7176 2983 c14 -49 34 -125 46 -170 19 -79 22 -83 48 -83 26 0 28 4
60 123 18 67 36 126 40 130 7 8 33 -69 60 -173 21 -82 20 -81 48 -78 26 3 29
11 73 168 45 157 46 165 27 168 -11 2 -22 2 -24 0 -2 -3 -18 -58 -35 -124 -17
-65 -33 -123 -36 -128 -8 -13 -19 12 -38 84 -41 160 -45 170 -70 170 -26 0
-29 -8 -81 -198 -9 -35 -20 -59 -24 -55 -4 4 -17 49 -30 98 -41 161 -39 155
-65 155 l-23 0 24 -87z"/>
<path d="M7720 2900 l0 -171 107 3 c93 3 108 5 111 21 3 15 -6 17 -82 17 l-86
0 0 60 0 60 74 0 c69 0 74 1 69 20 -5 18 -14 20 -74 20 l-69 0 0 50 0 50 80 0
c73 0 80 2 80 20 0 19 -7 20 -105 20 l-105 0 0 -170z"/>
<path d="M8072 2903 l3 -168 55 -3 c130 -8 190 23 190 97 0 31 -6 44 -26 60
l-26 20 21 27 c24 30 26 52 10 87 -16 36 -50 47 -145 47 l-84 0 2 -167z m176
115 c7 -7 12 -24 12 -38 0 -39 -18 -50 -82 -50 l-58 0 0 50 0 50 58 0 c32 0
63 -5 70 -12z m-4 -138 c15 -5 28 -20 32 -36 11 -43 -32 -74 -102 -74 l-54 0
0 60 0 60 49 0 c27 0 61 -4 75 -10z"/>
<path d="M9080 2900 l0 -171 23 3 c20 3 22 9 25 71 l3 68 37 -3 c34 -3 40 -8
71 -65 23 -43 41 -63 57 -66 32 -6 31 1 -13 74 -27 47 -33 64 -23 67 60 20 80
108 36 159 -23 26 -29 28 -120 31 l-96 4 0 -172z m180 110 c11 -11 20 -29 20
-40 0 -38 -35 -60 -95 -60 l-55 0 0 60 0 60 55 0 c42 0 60 -5 75 -20z"/>
<path d="M9465 2977 c1 -50 2 -127 3 -169 l2 -78 105 0 c98 0 105 1 105 20 0
17 -8 19 -82 22 l-83 3 0 55 0 55 73 3 c64 3 72 5 72 22 0 18 -7 20 -75 20
l-75 0 0 50 0 50 85 0 c78 0 85 2 85 20 0 19 -7 20 -107 20 l-108 0 0 -93z"/>
<path d="M9917 3063 c-6 -10 -127 -324 -127 -329 0 -2 9 -4 21 -4 14 0 26 13
40 45 l20 45 74 0 73 0 18 -45 c13 -36 22 -45 40 -45 l23 0 -30 83 c-17 45
-45 121 -63 169 -28 81 -33 88 -58 88 -15 0 -29 -3 -31 -7z m57 -117 c14 -41
26 -77 26 -80 0 -3 -25 -6 -55 -6 -30 0 -55 4 -55 8 0 7 26 89 45 140 8 21 12
14 39 -62z"/>
<path d="M10160 3050 c0 -17 7 -20 50 -20 l49 0 3 -147 c3 -145 3 -148 26
-151 22 -3 22 -3 22 147 l0 150 52 3 c41 2 54 7 56 21 3 15 -8 17 -127 17
-124 0 -131 -1 -131 -20z"/>
<path d="M10540 2899 l0 -170 23 3 c22 3 22 5 25 171 l2 167 -25 0 -25 0 0
-171z"/>
<path d="M10716 3048 c3 -13 29 -84 56 -158 27 -74 51 -141 53 -148 3 -8 16
-12 32 -10 26 3 32 13 90 168 59 156 61 165 41 168 -26 5 -26 5 -78 -143 -25
-69 -48 -125 -51 -125 -6 0 -27 52 -85 218 -15 43 -23 52 -42 52 -20 0 -22 -4
-16 -22z"/>
<path d="M11130 2900 l0 -170 110 0 c103 0 110 1 110 20 0 18 -7 20 -85 20
l-85 0 0 60 0 60 75 0 c68 0 75 2 75 20 0 18 -7 20 -75 20 l-75 0 0 50 0 50
80 0 c73 0 80 2 80 20 0 19 -7 20 -105 20 l-105 0 0 -170z"/>
</g>
</svg>
