<?xml version="1.0" standalone="no"?>
<!DOCTYPE svg PUBLIC "-//W3C//DTD SVG 20010904//EN"
 "http://www.w3.org/TR/2001/REC-SVG-20010904/DTD/svg10.dtd">
<svg version="1.0" xmlns="http://www.w3.org/2000/svg"
 width="2103.000000pt" height="748.000000pt" viewBox="0 0 2103.000000 748.000000"
 preserveAspectRatio="xMidYMid meet">

<g transform="translate(0.000000,748.000000) scale(0.100000,-0.100000)"
fill="#2c6e6d" stroke="none">
<path d="M5620 5406 c-705 -103 -1239 -609 -1387 -1315 -36 -173 -38 -420 -5
-589 128 -644 626 -1143 1282 -1283 89 -19 136 -23 310 -23 176 0 220 3 310
22 219 48 431 137 620 263 127 84 333 290 419 419 326 491 367 1077 111 1605
-70 144 -131 239 -233 361 -218 263 -576 465 -937 530 -120 22 -373 27 -490
10z m176 -412 c113 -32 177 -66 314 -164 148 -106 238 -155 325 -175 229 -53
288 -75 381 -141 96 -68 180 -166 229 -269 62 -129 79 -198 79 -335 0 -189
-51 -332 -184 -510 -81 -108 -114 -169 -168 -309 -22 -54 -56 -129 -77 -167
-52 -95 -187 -228 -280 -275 -129 -67 -162 -74 -340 -74 l-160 0 -120 44
c-219 78 -274 91 -460 101 -186 10 -243 22 -345 76 -182 95 -319 262 -391 475
-29 83 -33 110 -37 234 -6 201 23 309 136 505 77 134 89 166 127 332 50 216
123 358 241 468 205 191 473 259 730 184z"/>
<path d="M5440 4869 c-124 -32 -195 -73 -286 -163 -107 -108 -154 -198 -195
-377 -39 -169 -63 -235 -132 -356 -112 -196 -144 -309 -134 -468 8 -118 27
-190 82 -301 80 -163 221 -288 375 -334 43 -13 122 -22 235 -29 180 -10 218
-18 430 -95 117 -41 226 -59 310 -51 253 26 421 171 528 455 39 103 84 187
162 300 130 189 168 289 168 445 0 111 -20 193 -74 304 -82 166 -224 266 -447
316 -146 32 -245 80 -397 190 -66 47 -152 102 -190 121 -134 64 -294 80 -435
43z m220 -635 l0 -226 40 35 c53 49 105 74 182 88 173 32 342 -61 423 -233 98
-208 55 -492 -97 -634 -77 -72 -143 -97 -265 -102 -92 -4 -107 -2 -156 21 -31
14 -77 45 -103 69 -26 23 -44 37 -40 30 4 -7 5 -34 1 -60 l-6 -47 -132 0 -132
0 -3 643 -2 642 145 0 145 0 0 -226z"/>
<path d="M5781 3879 c-47 -19 -82 -52 -108 -102 -24 -45 -27 -64 -27 -138 0
-106 27 -167 93 -214 39 -28 50 -30 126 -30 78 0 86 2 122 31 21 17 49 51 63
75 22 38 25 56 25 139 0 74 -4 103 -19 130 -44 83 -105 120 -193 119 -32 0
-69 -5 -82 -10z"/>
<path d="M10128 4987 c-113 -32 -179 -117 -179 -233 -1 -101 35 -161 122 -209
45 -24 66 -29 124 -29 39 0 87 6 109 13 51 18 115 76 137 126 34 74 20 184
-33 255 -48 66 -185 103 -280 77z"/>
<path d="M8075 4908 c-3 -7 -4 -492 -3 -1078 l3 -1065 95 -2 c52 0 143 1 203
4 l107 6 0 156 1 156 37 -69 c73 -137 178 -222 322 -262 101 -28 320 -26 425
4 190 55 318 159 400 325 60 122 85 223 92 377 17 369 -113 652 -357 779 -200
104 -466 108 -650 10 -71 -38 -157 -125 -196 -200 l-29 -54 -3 463 -2 462
-220 0 c-167 0 -222 -3 -225 -12z m971 -989 c57 -18 77 -31 129 -82 85 -85
107 -144 113 -299 3 -98 1 -129 -17 -185 -36 -121 -120 -210 -235 -250 -73
-25 -213 -24 -285 2 -69 25 -154 102 -187 168 -67 132 -70 335 -7 462 83 169
288 246 489 184z"/>
<path d="M11327 4310 c-126 -21 -283 -86 -377 -155 -67 -49 -162 -153 -199
-218 -41 -72 -76 -176 -92 -272 -17 -105 -6 -298 21 -395 55 -194 185 -356
350 -437 331 -163 806 -125 1065 84 77 62 157 169 194 258 49 117 64 218 58
379 -6 165 -21 228 -82 353 -130 265 -409 415 -767 412 -67 -1 -145 -5 -171
-9z m339 -391 c57 -18 77 -31 129 -82 93 -93 110 -144 110 -323 l0 -140 -38
-76 c-67 -136 -171 -204 -327 -215 -132 -9 -253 30 -330 107 -148 148 -156
471 -15 627 108 121 285 159 471 102z"/>
<path d="M13329 4297 c-161 -55 -270 -187 -328 -396 -11 -41 -23 -77 -27 -80
-4 -3 -4 39 0 94 3 55 9 160 12 233 l7 132 -217 0 -216 0 2 -755 3 -756 216 0
217 0 6 383 c5 334 9 394 26 465 49 204 151 312 294 313 110 0 184 -57 228
-174 21 -59 22 -77 28 -524 l5 -463 217 -2 217 -2 3 400 c5 435 6 450 67 580
56 121 143 185 251 185 109 -1 192 -68 232 -190 21 -62 22 -84 26 -517 l3
-452 220 -3 219 -3 0 477 c0 515 -5 580 -51 723 -77 240 -238 354 -499 355
-251 0 -414 -130 -490 -390 -12 -41 -24 -82 -27 -90 -3 -8 -12 26 -19 75 -19
137 -46 199 -118 271 -96 96 -200 134 -359 134 -58 0 -101 -7 -148 -23z"/>
<path d="M15910 4314 c-207 -40 -387 -144 -492 -284 -50 -66 -110 -191 -135
-280 -14 -51 -18 -102 -18 -240 0 -156 3 -183 23 -250 31 -98 81 -192 140
-263 221 -267 707 -345 1062 -171 142 70 233 168 289 311 l20 52 -77 22 c-42
13 -125 39 -185 59 l-107 36 -33 -60 c-66 -121 -170 -171 -340 -164 -86 3
-111 8 -158 31 -101 49 -163 131 -188 245 -6 29 -11 57 -11 62 0 6 211 10 555
10 l555 0 0 115 c0 383 -186 649 -520 745 -57 17 -108 23 -215 25 -77 2 -151
1 -165 -1z m263 -354 c110 -34 195 -129 213 -238 l7 -42 -336 0 c-208 0 -338
4 -342 10 -11 18 16 94 52 147 83 123 246 172 406 123z"/>
<path d="M9980 3523 l0 -758 223 1 222 2 3 756 2 756 -225 0 -225 0 0 -757z"/>
</g>
</svg>
