<?xml version="1.0" standalone="no"?>
<svg version="1.0" xmlns="http://www.w3.org/2000/svg"
 width="563" height="563" viewBox="773 59 563 563"
 preserveAspectRatio="xMidYMid meet">

<rect x="773" y="59" width="563" height="563" rx="120" fill="#2c6e6d"/>

<g transform="translate(0.000000,747.000000) scale(0.100000,-0.100000)"
fill="#ffffff" stroke="none">
<path d="M10355 6394 c-16 -2 -73 -9 -125 -15 -208 -23 -478 -98 -685 -190
-263 -118 -464 -257 -676 -468 -285 -285 -467 -585 -598 -981 -76 -232 -111
-447 -111 -685 0 -550 192 -1057 563 -1491 376 -440 867 -714 1452 -811 152
-25 556 -25 695 0 299 54 523 129 775 261 710 370 1183 1083 1246 1877 43 556
-161 1184 -541 1658 -94 117 -275 294 -389 381 -403 305 -925 474 -1445 469
-72 -1 -144 -4 -161 -5z m107 -607 c174 -46 299 -112 534 -281 202 -146 316
-196 557 -246 462 -94 766 -389 857 -831 19 -88 21 -126 17 -249 -10 -279 -79
-452 -294 -738 -84 -111 -158 -250 -214 -399 -58 -156 -99 -237 -170 -336
-162 -228 -408 -381 -679 -422 -227 -35 -367 -13 -730 114 -198 69 -258 80
-530 96 -270 16 -328 29 -485 105 -226 110 -404 295 -525 544 -70 144 -106
270 -122 428 -27 265 35 505 200 781 111 183 141 258 182 451 17 82 47 194 66
250 101 291 294 513 558 641 125 61 172 77 301 105 130 28 342 23 477 -13z"/>
<path d="M10090 5620 c-233 -27 -464 -145 -602 -307 -120 -141 -187 -286 -233
-504 -48 -229 -92 -346 -196 -515 -161 -263 -217 -470 -191 -704 29 -258 133
-482 306 -656 92 -92 186 -157 296 -202 98 -40 162 -49 410 -61 242 -12 343
-32 555 -111 230 -85 267 -93 450 -93 133 0 173 3 238 21 219 60 412 212 525
412 20 36 58 119 85 185 92 229 123 284 310 551 78 113 135 230 164 343 22 86
24 111 20 236 -8 260 -81 447 -237 605 -139 141 -270 209 -502 261 -248 54
-358 105 -595 271 -245 172 -319 210 -478 246 -111 26 -226 33 -325 22z m190
-946 l0 -336 65 61 c102 95 186 129 335 138 377 22 655 -311 626 -751 -8 -137
-28 -214 -82 -324 -81 -164 -220 -278 -385 -317 -94 -22 -242 -20 -322 5 -73
23 -171 84 -216 135 -17 19 -33 35 -36 35 -4 0 -5 -37 -4 -82 l2 -83 -194 0
-194 0 -3 928 -2 927 205 0 205 0 0 -336z"/>
<path d="M10490 4181 c-81 -26 -149 -82 -185 -151 -29 -57 -47 -161 -41 -241
15 -203 121 -317 304 -327 158 -9 259 62 312 218 32 93 25 239 -14 325 -31 69
-84 128 -141 158 -43 22 -188 34 -235 18z"/>
</g>
</svg>
